<svg height="90" viewBox="0 0 414 90" width="414" xmlns="http://www.w3.org/2000/svg"><path d="m42.16 56.88h137.41v11.94h-137.41z" fill="#fff"/><path d="m179.57 56.88h208.19v11.94h-208.19z"/><path d="m49.34 66-.34-1.09h-2.46l-.33 1.09h-1.78l2.48-6.7h1.75l2.47 6.7zm-1.58-5.11-.83 2.83h1.7z"/><path d="m56 61.27a2.41 2.41 0 0 0 -1.76-.84c-.68 0-1 .4-1 .72s.29.53.86.61l.74.11c1.74.24 2.47.78 2.47 1.93 0 1.41-1.13 2.33-3 2.33a3.6 3.6 0 0 1 -3.06-1.36l1.27-.8a2.58 2.58 0 0 0 1.94.84c.49 0 1.23-.22 1.23-.78s-.57-.6-1.16-.68l-.77-.11c-1.18-.16-2.14-.71-2.14-1.88s1-2.24 2.71-2.24a4.05 4.05 0 0 1 3 1.27z"/><path d="m63.75 63.33a2.65 2.65 0 0 1 -2.89 2.8 2.55 2.55 0 0 1 -2.86-2.69v-4.16h1.69v4.35c0 .9.45 1.11 1.2 1.11s1.15-.42 1.15-1.19v-4.27h1.68z"/><path d="m69.29 66v-.45a2.39 2.39 0 0 1 -1.52.58 1.5 1.5 0 0 1 -1.62-1.51 1.57 1.57 0 0 1 1-1.42 11.81 11.81 0 0 1 2-.46v-.27a.53.53 0 0 0 -.56-.6c-.62 0-.74.36-.77.58h-1.46c0-1.09 1-1.54 2.08-1.54.86 0 2.14.23 2.14 1.42v2.9a1.23 1.23 0 0 0 .14.77zm-1.08-2.06c-.51.16-.63.4-.63.62a.53.53 0 0 0 .56.5 1.1 1.1 0 0 0 1-1.22v-.24z"/><path d="m74.55 66v-2.7c0-.51 0-1.17-.75-1.17s-.79.46-.79 1.24v2.63h-1.46v-6.7h1.45v2.27a1.89 1.89 0 0 1 1.41-.66 1.5 1.5 0 0 1 1.59 1.68v3.41z"/><path d="m78.15 63.8v.06a1.12 1.12 0 0 0 1.13 1.14 1.33 1.33 0 0 0 1.25-.88l1.1.56a2.79 2.79 0 0 1 -2.47 1.44 2.36 2.36 0 0 1 -2.5-2.56 2.46 2.46 0 0 1 2.54-2.73c1.86 0 2.49 1.49 2.49 2.87v.06zm2-.91a1 1 0 0 0 -1-1 1.07 1.07 0 0 0 -1 1z"/><path d="m85.17 66v-.45a2.39 2.39 0 0 1 -1.52.58 1.5 1.5 0 0 1 -1.65-1.53 1.57 1.57 0 0 1 1-1.42 11.81 11.81 0 0 1 2-.46v-.27a.53.53 0 0 0 -.56-.6c-.62 0-.73.36-.77.58h-1.43c0-1.09 1-1.54 2.08-1.54.86 0 2.14.23 2.14 1.42v2.9a1.23 1.23 0 0 0 .14.77zm-1.08-2.06c-.51.16-.63.4-.63.62a.53.53 0 0 0 .54.44 1.1 1.1 0 0 0 1-1.22v-.18z"/><path d="m90.59 66v-.47a1.79 1.79 0 0 1 -1.32.6c-1.17 0-2.15-.9-2.15-2.57 0-1.47.72-2.65 2.07-2.65a2 2 0 0 1 1.31.5v-2.13h1.42v6.72zm-1-1c.95 0 1-1.25 1-1.49 0-.62-.11-1.56-.91-1.56s-1 .85-1 1.55c-.08.5.02 1.5.86 1.5z"/><path d="m96.89 66.13a2.63 2.63 0 1 1 2.67-2.63 2.46 2.46 0 0 1 -2.67 2.63zm0-4.1c-.55 0-1.13.42-1.13 1.45 0 .83.35 1.48 1.2 1.48s1.17-.67 1.17-1.41c-.05-1.06-.49-1.55-1.29-1.55z"/><path d="m101.91 62v4h-1.45v-4h-.78v-.89h.78v-.71c0-.86.64-1.26 1.49-1.26a6.42 6.42 0 0 1 .88.09v1.1h-.27c-.61 0-.66.12-.66.48v.3h1v.89z"/><path d="m110.76 66s0-3.7 0-5l-1.39 5h-1.37l-1.39-5v5h-1.61v-6.7h2.45l1.23 4.7 1.24-4.69h2.45v6.69z"/><path d="m113.56 66v-6.7h1.67v6.7z"/><path d="m119.18 60.6v5.4h-1.69v-5.4h-1.75v-1.32h5.18v1.32z"/><path d="m125.94 66v-.45a2.39 2.39 0 0 1 -1.52.58 1.5 1.5 0 0 1 -1.62-1.51 1.58 1.58 0 0 1 1-1.42 11.88 11.88 0 0 1 2-.46v-.27a.53.53 0 0 0 -.56-.6c-.62 0-.73.36-.77.58h-1.47c0-1.09 1-1.54 2.09-1.54.85 0 2.13.23 2.13 1.42v2.9c0 .43 0 .59.15.77zm-1.08-2.06c-.5.16-.63.4-.63.62a.53.53 0 0 0 .56.5 1.1 1.1 0 0 0 1-1.22v-.24z"/><path d="m131.17 66v-3.08c0-.46-.14-.85-.73-.85s-.76.47-.76 1.14v2.79h-1.47v-5h1.48v.44a1.82 1.82 0 0 1 1.4-.56 1.36 1.36 0 0 1 1.54 1.52v3.6z"/><path d="m136.77 66v-.47a1.78 1.78 0 0 1 -1.32.6c-1.17 0-2.14-.9-2.14-2.57 0-1.47.72-2.65 2.06-2.65a2 2 0 0 1 1.31.5v-2.13h1.42v6.72zm-1-1c.94 0 1-1.25 1-1.49 0-.62-.11-1.56-.91-1.56s-1 .85-1 1.55c-.07.5.02 1.5.87 1.5z"/><path d="m145 61.27a2.37 2.37 0 0 0 -1.75-.84c-.68 0-1 .4-1 .72s.29.53.86.61l.74.11c1.74.24 2.46.78 2.46 1.93 0 1.41-1.12 2.33-3 2.33a3.6 3.6 0 0 1 -3.06-1.36l1.27-.8a2.58 2.58 0 0 0 1.94.84c.49 0 1.23-.22 1.23-.78s-.57-.6-1.16-.68l-.77-.11c-1.18-.16-2.14-.71-2.14-1.88s1-2.24 2.71-2.24a4.05 4.05 0 0 1 2.95 1.27z"/><path d="m148.6 62v2.37c0 .33.16.41.38.41h.52v1.13a4.43 4.43 0 0 1 -.93.08c-.79 0-1.41-.25-1.41-1.41v-2.58h-.72v-.89h.72v-1.52h1.44v1.56h1v.85z"/><path d="m153 66v-.45a2.39 2.39 0 0 1 -1.52.58 1.5 1.5 0 0 1 -1.62-1.51 1.59 1.59 0 0 1 1-1.42 12.1 12.1 0 0 1 2-.46v-.27a.53.53 0 0 0 -.56-.6c-.62 0-.73.36-.77.58h-1.46c0-1.09 1-1.54 2.09-1.54.85 0 2.13.23 2.13 1.42v2.9a1.23 1.23 0 0 0 .14.77zm-1.08-2.06c-.5.16-.63.4-.63.62a.53.53 0 0 0 .56.5 1.1 1.1 0 0 0 1-1.22v-.24z"/><path d="m158.22 66v-3.08c0-.46-.13-.85-.72-.85s-.77.47-.77 1.14v2.79h-1.46v-5h1.48v.44a1.8 1.8 0 0 1 1.4-.56 1.36 1.36 0 0 1 1.53 1.52v3.6z"/><path d="m162.35 62v4h-1.46v-4h-.77v-.89h.77v-.71c0-.86.64-1.26 1.49-1.26a6.23 6.23 0 0 1 .88.09v1.1h-.26c-.61 0-.65.12-.65.48v.3h1v.89z"/><path d="m166.07 66.13a2.63 2.63 0 1 1 2.67-2.63 2.47 2.47 0 0 1 -2.67 2.63zm-.07-4.13c-.55 0-1.13.42-1.13 1.45 0 .83.36 1.48 1.21 1.48s1.17-.67 1.17-1.41c.01-1.03-.44-1.52-1.25-1.52z"/><path d="m170.82 61v.52a1.69 1.69 0 0 1 .58-.37 2.32 2.32 0 0 1 .85-.2v1.29l-.48.07c-.77.13-.91.33-.91.86v2.83h-1.46v-5z"/><path d="m175.87 66v-.47a1.78 1.78 0 0 1 -1.32.6c-1.16 0-2.14-.9-2.14-2.57 0-1.47.72-2.65 2.07-2.65a2 2 0 0 1 1.31.5v-2.13h1.41v6.72zm-1-1c.95 0 1-1.25 1-1.49 0-.62-.12-1.56-.91-1.56s-1 .85-1 1.55c-.07.5.04 1.5.87 1.5z"/><g fill="#ffc627"><path d="m183.13 63.73v-1.36h5.22v1.36z"/><path d="m196.39 63.33a2.64 2.64 0 0 1 -2.88 2.8 2.55 2.55 0 0 1 -2.84-2.69v-4.16h1.69v4.35c0 .9.46 1.11 1.21 1.11s1.14-.42 1.14-1.19v-4.27h1.68z"/><path d="m197.17 66v-1.61h1.5v1.61z"/><path d="m204.08 61.27a2.37 2.37 0 0 0 -1.75-.84c-.69 0-1 .4-1 .72s.28.53.85.61l.74.11c1.75.24 2.47.78 2.47 1.93 0 1.41-1.13 2.33-3 2.33a3.58 3.58 0 0 1 -3.05-1.36l1.27-.8a2.57 2.57 0 0 0 1.94.84c.49 0 1.23-.22 1.23-.78s-.57-.6-1.17-.68l-.77-.11c-1.17-.16-2.13-.71-2.13-1.88s1-2.24 2.7-2.24a4 4 0 0 1 2.95 1.27z"/><path d="m206.07 66v-1.61h1.5v1.61z"/><path d="m214 66-2.37-4v4h-1.63v-6.7h1.64l2.38 4.08v-4.1h1.61v6.72z"/><path d="m217.94 63.8v.06a1.12 1.12 0 0 0 1.13 1.14 1.33 1.33 0 0 0 1.25-.88l1.1.56a2.79 2.79 0 0 1 -2.42 1.48 2.36 2.36 0 0 1 -2.5-2.56 2.46 2.46 0 0 1 2.5-2.73c1.86 0 2.49 1.49 2.49 2.87v.06zm2-.91a1 1 0 0 0 -1-1 1.07 1.07 0 0 0 -1 1z"/><path d="m227.42 66h-1.58l-.73-3.3-.74 3.3h-1.61l-1.36-5h1.54l.69 3.47.75-3.47h1.56l.68 3.5.77-3.5h1.51z"/><path d="m232.38 62.44a2.06 2.06 0 0 0 -1.26-.5c-.31 0-.68.11-.68.38s.23.32.8.43l.36.07c1.07.2 1.78.63 1.78 1.55 0 1.24-1.31 1.73-2.34 1.73a3.28 3.28 0 0 1 -2.41-1l.93-.83a2.11 2.11 0 0 0 1.44.73c.48 0 .88-.17.88-.48s-.26-.35-.79-.44l-.44-.08c-1.18-.19-1.66-.71-1.66-1.47s.7-1.66 2.09-1.66a3.62 3.62 0 0 1 2.2.74z"/><path d="m240.46 66a1.33 1.33 0 0 1 -1.13-.45 3.35 3.35 0 0 1 -1.79.51 2.1 2.1 0 0 1 -2.29-2.06 2.3 2.3 0 0 1 1.64-2.11 2.29 2.29 0 0 1 -.44-1.15 1.54 1.54 0 0 1 1.72-1.47 1.48 1.48 0 0 1 1.63 1.45 1.71 1.71 0 0 1 -1.25 1.56c.18.28.36.54.54.8l.37.53a3.77 3.77 0 0 0 .32-1l1.22.39a6 6 0 0 1 -.72 1.59.82.82 0 0 0 .76.31h.24v1.1zm-3-3.14-.23.15a1.14 1.14 0 0 0 -.55.93 1 1 0 0 0 1 1 1.84 1.84 0 0 0 .93-.31zm.66-2.58a.42.42 0 0 0 -.47.39c0 .22.11.37.32.72.28-.15.62-.39.62-.71s-.2-.42-.45-.42z"/><path d="m250.45 66h-1.73l-1.21-4.29-1.21 4.29h-1.73l-1.7-6.7h1.68l1 4.61 1.22-4.61h1.49l1.25 4.61 1-4.61h1.67z"/><path d="m254.72 66.13a2.63 2.63 0 1 1 2.67-2.63 2.47 2.47 0 0 1 -2.67 2.63zm-.06-4.1c-.55 0-1.13.42-1.13 1.45 0 .83.36 1.48 1.21 1.48s1.17-.67 1.17-1.41c0-1.06-.45-1.55-1.25-1.55z"/><path d="m259.47 61v.52a1.62 1.62 0 0 1 .57-.37 2.36 2.36 0 0 1 .86-.2v1.29l-.49.07c-.76.13-.91.33-.91.86v2.83h-1.45v-5z"/><path d="m261.32 66v-6.7h1.45v6.7z"/><path d="m266.92 66v-.47a1.78 1.78 0 0 1 -1.32.6c-1.16 0-2.14-.9-2.14-2.57 0-1.47.72-2.65 2.07-2.65a2 2 0 0 1 1.31.5v-2.13h1.41v6.72zm-1-1c.95 0 1-1.25 1-1.49 0-.62-.12-1.56-.92-1.56s-1 .85-1 1.55c-.06.5 0 1.5.88 1.5z"/><path d="m274.08 59.28c1 0 2.57.25 2.57 2.17a1.79 1.79 0 0 1 -1.38 1.85l1.55 2.7h-1.82l-1.34-2.39h-1.05v2.39h-1.68v-6.7zm-1.49 3.06h1.41a.88.88 0 0 0 1-.93c0-.87-.71-.89-1-.89h-1.39z"/><path d="m278.54 63.8v.06a1.12 1.12 0 0 0 1.13 1.14 1.34 1.34 0 0 0 1.26-.88l1.1.56a2.81 2.81 0 0 1 -2.47 1.44 2.36 2.36 0 0 1 -2.51-2.56 2.47 2.47 0 0 1 2.55-2.73c1.86 0 2.48 1.49 2.48 2.87v.06zm2-.91a1 1 0 0 0 -1-1 1.08 1.08 0 0 0 -1 1z"/><path d="m284 61v.49a1.6 1.6 0 0 1 1.38-.6c1.43 0 2.16 1.2 2.16 2.58 0 1.6-.84 2.58-2.16 2.58a2 2 0 0 1 -1.21-.41v2h-1.48v-6.64zm1.11 4c.75 0 1-.84 1-1.6 0-.34-.1-1.48-1-1.48-.54 0-1.05.48-1.05 1.63.01.84.35 1.45 1.02 1.45z"/><path d="m290.54 66.13a2.63 2.63 0 1 1 2.67-2.63 2.47 2.47 0 0 1 -2.67 2.63zm-.06-4.1c-.55 0-1.13.42-1.13 1.45 0 .83.35 1.48 1.21 1.48s1.17-.67 1.17-1.41c0-1.06-.45-1.55-1.25-1.55z"/><path d="m295.28 61v.52a1.8 1.8 0 0 1 .58-.37 2.36 2.36 0 0 1 .86-.2v1.29l-.49.07c-.77.13-.91.33-.91.86v2.83h-1.45v-5z"/><path d="m299 62v2.37c0 .33.15.41.38.41h.51v1.13a4.39 4.39 0 0 1 -.89.09c-.8 0-1.42-.25-1.42-1.41v-2.59h-.72v-.89h.72v-1.52h1.42v1.56h1v.85z"/><path d="m302.07 64.38v1.3a1.73 1.73 0 0 1 -1.51 1.94v-.62c.46-.18.53-.53.57-1h-.58v-1.6z"/><path d="m304.19 59.54h4.55v1.16a8.81 8.81 0 0 0 -1.74 3.19 9.1 9.1 0 0 0 -.44 2.09h-1.77a11.25 11.25 0 0 1 2.52-5.19h-3.07z"/><path d="m315.32 61-1.75 5.36a2.24 2.24 0 0 1 -.48.93 1.23 1.23 0 0 1 -1 .38h-1.09v-1.15h.63c.4 0 .49-.19.49-.36a1.69 1.69 0 0 0 -.1-.48l-1.44-4.68h1.55l.82 3.55.81-3.55z"/><path d="m316.73 63.8v.06a1.12 1.12 0 0 0 1.13 1.14 1.34 1.34 0 0 0 1.26-.88l1.1.56a2.81 2.81 0 0 1 -2.47 1.44 2.36 2.36 0 0 1 -2.51-2.56 2.47 2.47 0 0 1 2.55-2.73c1.86 0 2.48 1.49 2.48 2.87v.06zm2-.91a.94.94 0 0 0 -1-1 1.07 1.07 0 0 0 -1 1z"/><path d="m323.76 66v-.45a2.39 2.39 0 0 1 -1.52.58 1.51 1.51 0 0 1 -1.63-1.51 1.58 1.58 0 0 1 1.05-1.42 11.88 11.88 0 0 1 1.95-.46v-.27a.53.53 0 0 0 -.56-.6c-.61 0-.73.36-.77.58h-1.46c0-1.09 1-1.54 2.09-1.54.85 0 2.14.23 2.14 1.42v2.9c0 .43 0 .59.14.77zm-1.09-2.06c-.5.16-.62.4-.62.62a.53.53 0 0 0 .56.5 1.09 1.09 0 0 0 1-1.22v-.24z"/><path d="m327.42 61v.52a1.8 1.8 0 0 1 .58-.37 2.36 2.36 0 0 1 .86-.2v1.29l-.49.07c-.77.13-.91.33-.91.86v2.83h-1.46v-5z"/><path d="m332.51 62.44a2.08 2.08 0 0 0 -1.26-.5c-.32 0-.69.11-.69.38s.23.32.81.43l.35.07c1.07.2 1.79.63 1.79 1.55 0 1.24-1.31 1.73-2.35 1.73a3.27 3.27 0 0 1 -2.4-1l.92-.83a2.11 2.11 0 0 0 1.44.68c.49 0 .89-.17.89-.48s-.26-.35-.79-.44l-.45-.08c-1.17-.19-1.66-.71-1.66-1.47s.7-1.66 2.1-1.66a3.66 3.66 0 0 1 2.2.74z"/><path d="m335.6 64.38v1.3a1.73 1.73 0 0 1 -1.51 1.94v-.62c.46-.18.53-.53.57-1h-.58v-1.6z"/><path d="m337.7 61.85v-.23a2 2 0 0 1 2.3-2.19 1.92 1.92 0 0 1 2.18 2c0 1.12-.61 2-2.48 3.41h2.5v1.16h-4.41v-1.14c.49-.39.82-.65 1.49-1.22a2.8 2.8 0 0 0 1.31-2.22c0-.25 0-.88-.66-.88-.25 0-.7.11-.7.79v.6z"/><path d="m345.18 59.44c2.06 0 2.28 2.44 2.28 3.35 0 1.46-.48 3.33-2.33 3.33-1.52 0-2.23-1.33-2.23-3.41 0-1.81.71-3.27 2.28-3.27zm0 5.5c.72 0 .86-1.1.86-2.13s-.17-2.18-.88-2.18-.85.93-.86 2.4c0 .74.11 1.91.88 1.91z"/><path d="m348.19 60.5a2.57 2.57 0 0 0 1.06-.24 1.3 1.3 0 0 0 .67-.72h1.16v6.46h-1.53v-4.7a2.72 2.72 0 0 1 -1.36.21z"/><path d="m355.49 61.34v-.13a.59.59 0 0 0 -.59-.64c-.82 0-.91 1.22-.94 2a1.53 1.53 0 0 1 1.4-.75 1.79 1.79 0 0 1 1.77 2 2.13 2.13 0 0 1 -2.3 2.26c-1.13 0-2.31-.72-2.31-3.17 0-1.74.41-3.49 2.51-3.49a1.88 1.88 0 0 1 2 1.75zm-.6 3.62c.79 0 .79-.85.79-1s0-1-.77-1c-.43 0-.76.34-.76 1 0 .32.09 1.04.74 1.04z"/><path d="m358.24 63.73v-1.36h5.22v1.36z"/><path d="m364.66 61.85v-.23a2 2 0 0 1 2.25-2.19 1.93 1.93 0 0 1 2.19 2c0 1.12-.61 2-2.49 3.41h2.51v1.16h-4.42v-1.14c.5-.39.83-.65 1.49-1.22a2.8 2.8 0 0 0 1.31-2.22c0-.25 0-.88-.65-.88-.26 0-.7.11-.7.79v.6z"/><path d="m372.14 59.44c2.06 0 2.27 2.44 2.27 3.35 0 1.46-.48 3.33-2.33 3.33-1.52 0-2.23-1.33-2.23-3.41 0-1.81.71-3.27 2.29-3.27zm0 5.5c.72 0 .85-1.1.85-2.13s-.17-2.18-.87-2.18-.86.93-.87 2.4c0 .74.12 1.91.89 1.91z"/><path d="m375 61.85v-.23a2 2 0 0 1 2.25-2.19 1.93 1.93 0 0 1 2.19 2c0 1.12-.61 2-2.49 3.41h2.51v1.16h-4.46v-1.14c.5-.39.83-.65 1.49-1.22a2.8 2.8 0 0 0 1.31-2.22c0-.25 0-.88-.65-.88-.26 0-.7.11-.7.79v.6z"/><path d="m380.12 61.85v-.23a2 2 0 0 1 2.26-2.19 1.92 1.92 0 0 1 2.18 2c0 1.12-.61 2-2.49 3.41h2.51v1.16h-4.42v-1.14c.5-.39.83-.65 1.49-1.22a2.8 2.8 0 0 0 1.35-2.22c0-.25 0-.88-.65-.88-.26 0-.7.11-.7.79v.6z"/></g><path d="m36.07 26.3a11.59 11.59 0 0 0 4.77-1.06 6 6 0 0 0 3-3.24h5.16v28.9h-6.84v-21.1c-1.58.68-2 .85-6.09.94z"/><path d="m59.31 29.62h4.58v3.58h-4.58zm0 5.54h4.58v15.74h-4.58z"/><path d="m72.16 36.61a4.45 4.45 0 0 1 1.57-1.24 7.63 7.63 0 0 1 2.86-.57 6 6 0 0 1 2.8.63c1.65.87 2.07 2.29 2.07 4.73v10.74h-4.6v-8.85a6.27 6.27 0 0 0 -.21-2.34 2.11 2.11 0 0 0 -2.08-1.21c-2.44 0-2.44 2-2.44 3.91v8.49h-4.63v-15.68h4.66z"/><path d="m91.93 30.65h4.61v4.9h3v2.83h-3.03v7.07c0 1 0 1.78 1.2 1.78l1.66-.06v3.61a15 15 0 0 1 -2.44.24c-1.6 0-3.34-.09-4.33-1.53a6 6 0 0 1 -.67-3.56v-7.58h-2.28v-2.83h2.28z"/><path d="m106.65 29.62v7.23a6 6 0 0 1 4.51-2.08 5.25 5.25 0 0 1 3.34 1.11c1.39 1.18 1.63 2.65 1.63 4.7v10.32h-4.61v-8.22a7.66 7.66 0 0 0 -.21-2.4 2.17 2.17 0 0 0 -2.16-1.57 2.4 2.4 0 0 0 -1.9.9 6.13 6.13 0 0 0 -.6 3.47v7.82h-4.65v-21.28z"/><path d="m133.67 46.9a12.57 12.57 0 0 1 -1.89 2.35 8.66 8.66 0 0 1 -5.93 2.22c-4.67 0-7.95-3-7.95-8.12 0-3.8 1.87-8.67 8.07-8.67a7.63 7.63 0 0 1 5.66 2.26c2 2.19 2.16 5.26 2.22 7h-11.22c0 2 1.08 3.91 3.58 3.91a4.14 4.14 0 0 0 4-2.77zm-4.6-5.81a3.75 3.75 0 0 0 -.87-2.23 3.3 3.3 0 0 0 -2.26-.87 3.18 3.18 0 0 0 -2.35 1 4.16 4.16 0 0 0 -.93 2.08z"/><path d="m161.45 29.65v11.86c0 2.05-.06 4.09-1.24 6-2.28 3.67-7 3.85-7.91 3.85a11.35 11.35 0 0 1 -4.94-1.14c-4.09-2.11-4.09-5.84-4.06-8.73v-11.84h5.36v13.25a5.71 5.71 0 0 0 .39 2.64c.66 1.12 2.11 1.45 3.43 1.45 3.61 0 3.61-2.47 3.64-4.12v-13.22z"/><path d="m162.79 46.35h4.31v4.55h-4.31z"/><path d="m172.69 44.52a6.75 6.75 0 0 0 2.05 1.66 8.75 8.75 0 0 0 4.09 1c2.11 0 3.91-1 3.91-2.47 0-1.68-2.14-2-3.7-2.17-1.17-.15-2.35-.3-3.49-.54-1.3-.27-5.72-1.2-5.72-5.78 0-5.47 4.88-7.1 8.55-7.1 4.9 0 7.55 2.38 9.39 4l-3.91 2.88a10 10 0 0 0 -2.11-1.71 7.66 7.66 0 0 0 -3.46-.93c-2.11 0-3.16 1.2-3.16 2.22 0 1.63 1.8 1.87 2.71 2a41.87 41.87 0 0 1 6.5 1.26 5.28 5.28 0 0 1 3.66 5.16 7 7 0 0 1 -1.69 4.51c-1.92 2.23-5 2.86-8 2.86-6 0-8.37-2.77-9.69-4.3z"/><path d="m188.51 46.35h4.31v4.55h-4.31z"/><path d="m202.88 33.63a4.55 4.55 0 0 1 .66-2.68 4.83 4.83 0 0 1 4-1.6 21.13 21.13 0 0 1 2.77.27v3.46h-1.11c-1.75 0-1.84.37-1.81 2.47h3.1v2.83h-3.07v12.52h-4.6v-12.52h-2.47v-2.83h2.5z"/><path d="m228.58 43c0 4-2.29 8.33-8.43 8.33-4.42 0-8.46-2.53-8.46-8.33 0-4.82 3-8.64 9.06-8.31 6.41.38 7.83 5.47 7.83 8.31zm-11.44-3.1a5.69 5.69 0 0 0 -.78 3.07c0 2.49 1.2 4.69 3.79 4.69s3.73-2 3.73-4.48a5.36 5.36 0 0 0 -1.29-4 3.38 3.38 0 0 0 -2.71-.87 3.11 3.11 0 0 0 -2.74 1.61z"/><path d="m234.83 36.82a7.27 7.27 0 0 1 4.55-1.82v4.1l-1.54.24c-2.22.4-2.89.73-2.89 2.71v8.85h-4.63v-15.74h4.51z"/><path d="m249.28 29.62h4.57v3.58h-4.57zm0 5.54h4.57v15.74h-4.57z"/><path d="m261.53 36.61a4.41 4.41 0 0 1 1.56-1.24 7.67 7.67 0 0 1 2.91-.57 6 6 0 0 1 2.8.63c1.65.87 2.08 2.29 2.08 4.73v10.74h-4.61v-8.85a6.27 6.27 0 0 0 -.21-2.34 2.1 2.1 0 0 0 -2.08-1.21c-2.43 0-2.43 2-2.43 3.91v8.49h-4.64v-15.68h4.67z"/><path d="m277.9 36.61a4.41 4.41 0 0 1 1.56-1.24 7.67 7.67 0 0 1 2.86-.57 6 6 0 0 1 2.8.63c1.65.87 2.08 2.29 2.08 4.73v10.74h-4.61v-8.85a6.27 6.27 0 0 0 -.21-2.34 2.1 2.1 0 0 0 -2.08-1.21c-2.43 0-2.43 2-2.43 3.91v8.49h-4.64v-15.68h4.67z"/><path d="m305.94 43c0 4-2.28 8.33-8.42 8.33-4.43 0-8.46-2.53-8.46-8.33 0-4.82 3-8.64 9.06-8.31 6.41.38 7.82 5.47 7.82 8.31zm-11.43-3.1a5.69 5.69 0 0 0 -.78 3.07c0 2.49 1.2 4.69 3.79 4.69s3.73-2 3.73-4.48a5.36 5.36 0 0 0 -1.29-4 3.38 3.38 0 0 0 -2.71-.87 3.11 3.11 0 0 0 -2.74 1.61z"/><path d="m305.7 35.19h4.88a100.68 100.68 0 0 1 2.77 11.44c.63-3.49.72-3.89 1.65-7.59l1-3.85h4.76l-5.13 15.71h-4.84z"/><path d="m322.13 39.64a4.37 4.37 0 0 1 1.66-3.49 8.09 8.09 0 0 1 5.15-1.38c1.92 0 6.59.45 6.59 4.51v9.15c0 1.69.09 1.93.45 2.47h-4.55v-1.44a7.38 7.38 0 0 1 -4.81 1.86 4.77 4.77 0 0 1 -5.15-4.78 5.09 5.09 0 0 1 3.31-4.54 40.87 40.87 0 0 1 6.2-1.44v-.84c-.06-.73-.12-1.93-1.77-1.93-2 0-2.32 1.26-2.44 1.83zm5.87 4.73c-.78.3-2 .75-2 2a1.68 1.68 0 0 0 1.74 1.59 3.09 3.09 0 0 0 1.6-.51c1.53-1 1.59-2.41 1.62-4z"/><path d="m339.11 30.65h4.6v4.9h3v2.83h-3.07v7.07c0 1 0 1.78 1.2 1.78l1.66-.06v3.61a14.87 14.87 0 0 1 -2.44.24c-1.59 0-3.34-.09-4.33-1.53a6.13 6.13 0 0 1 -.66-3.56v-7.58h-2.29v-2.83h2.29z"/><path d="m349.25 29.62h4.57v3.58h-4.57zm0 5.54h4.57v15.74h-4.57z"/><path d="m372.57 43c0 4-2.29 8.33-8.43 8.33-4.42 0-8.45-2.53-8.45-8.33 0-4.82 3-8.64 9.06-8.31 6.41.38 7.82 5.47 7.82 8.31zm-11.44-3.1a5.69 5.69 0 0 0 -.78 3.07c0 2.49 1.21 4.69 3.79 4.69s3.74-2 3.74-4.48a5.36 5.36 0 0 0 -1.3-4 3.37 3.37 0 0 0 -2.71-.87 3.13 3.13 0 0 0 -2.74 1.61z"/><path d="m378.5 36.61a4.41 4.41 0 0 1 1.56-1.24 7.67 7.67 0 0 1 2.86-.57 6 6 0 0 1 2.8.63c1.66.87 2.08 2.29 2.08 4.73v10.74h-4.61v-8.85a6.27 6.27 0 0 0 -.21-2.34 2.09 2.09 0 0 0 -2.07-1.21c-2.44 0-2.44 2-2.44 3.91v8.49h-4.64v-15.68h4.67z"/><path d="m34.53 50.9h-3.1l.65-4.54h-2.46l-.62 4.54h-3.07l.59-4.54h-2.33v-3h2.81l.29-2.36h-2.48v-3h2.9l.62-4.32h3.1l-.64 4.32h2.48l.59-4.32h3.14l-.64 4.32h2.26v3h-2.68l-.32 2.34h2.43v3h-2.88zm-2-7.55.31-2.35h-2.45l-.39 2.35z"/></svg>