<svg height="90" width="414" xmlns="http://www.w3.org/2000/svg"><path d="M42.16 56.88h137.41v11.94H42.16z" fill="#fff"/><path d="M179.57 56.88h208.19v11.94H179.57zM49.34 66L49 64.91h-2.46L46.21 66h-1.78l2.48-6.7h1.75l2.47 6.7zm-1.58-5.11l-.83 2.83h1.7zm8.24.38a2.41 2.41 0 00-1.76-.84c-.68 0-1 .4-1 .72s.29.53.86.61l.74.11c1.74.24 2.47.78 2.47 1.93 0 1.41-1.13 2.33-3 2.33a3.6 3.6 0 01-3.06-1.36l1.27-.8a2.58 2.58 0 001.94.84c.49 0 1.23-.22 1.23-.78s-.57-.6-1.16-.68l-.77-.11c-1.18-.16-2.14-.71-2.14-1.88s1-2.24 2.71-2.24a4.05 4.05 0 013 1.27zm7.75 2.06a2.65 2.65 0 01-2.89 2.8A2.55 2.55 0 0158 63.44v-4.16h1.69v4.35c0 .9.45 1.11 1.2 1.11s1.15-.42 1.15-1.19v-4.27h1.68zM69.29 66v-.45a2.39 2.39 0 01-1.52.58 1.5 1.5 0 01-1.62-1.51 1.57 1.57 0 011-1.42 11.81 11.81 0 012-.46v-.27a.53.53 0 00-.56-.6c-.62 0-.74.36-.77.58h-1.46c0-1.09 1-1.54 2.08-1.54.86 0 2.14.23 2.14 1.42v2.9a1.23 1.23 0 00.14.77zm-1.08-2.06c-.51.16-.63.4-.63.62a.53.53 0 00.56.5 1.1 1.1 0 001-1.22v-.24zM74.55 66v-2.7c0-.51 0-1.17-.75-1.17s-.79.46-.79 1.24V66h-1.46v-6.7H73v2.27a1.89 1.89 0 011.41-.66A1.5 1.5 0 0176 62.59V66zm3.6-2.2v.06A1.12 1.12 0 0079.28 65a1.33 1.33 0 001.25-.88l1.1.56a2.79 2.79 0 01-2.47 1.44 2.36 2.36 0 01-2.5-2.56 2.46 2.46 0 012.54-2.73c1.86 0 2.49 1.49 2.49 2.87v.06zm2-.91a1 1 0 00-1-1 1.07 1.07 0 00-1 1zM85.17 66v-.45a2.39 2.39 0 01-1.52.58A1.5 1.5 0 0182 64.6a1.57 1.57 0 011-1.42 11.81 11.81 0 012-.46v-.27a.53.53 0 00-.56-.6c-.62 0-.73.36-.77.58h-1.43c0-1.09 1-1.54 2.08-1.54.86 0 2.14.23 2.14 1.42v2.9a1.23 1.23 0 00.14.77zm-1.08-2.06c-.51.16-.63.4-.63.62A.53.53 0 0084 65a1.1 1.1 0 001-1.22v-.18zm6.5 2.06v-.47a1.79 1.79 0 01-1.32.6c-1.17 0-2.15-.9-2.15-2.57 0-1.47.72-2.65 2.07-2.65a2 2 0 011.31.5v-2.13h1.42V66zm-1-1c.95 0 1-1.25 1-1.49 0-.62-.11-1.56-.91-1.56s-1 .85-1 1.55c-.08.5.02 1.5.86 1.5zm7.3 1.13a2.63 2.63 0 112.67-2.63 2.46 2.46 0 01-2.67 2.63zm0-4.1c-.55 0-1.13.42-1.13 1.45 0 .83.35 1.48 1.2 1.48s1.17-.67 1.17-1.41c-.05-1.06-.49-1.55-1.29-1.55zm5.02-.03v4h-1.45v-4h-.78v-.89h.78v-.71c0-.86.64-1.26 1.49-1.26a6.42 6.42 0 01.88.09v1.1h-.27c-.61 0-.66.12-.66.48v.3h1V62zm8.85 4v-5l-1.39 5H108l-1.39-5v5H105v-6.7h2.45l1.23 4.7 1.24-4.69h2.45V66zm2.8 0v-6.7h1.67V66zm5.62-5.4V66h-1.69v-5.4h-1.75v-1.32h5.18v1.32zm6.76 5.4v-.45a2.39 2.39 0 01-1.52.58 1.5 1.5 0 01-1.62-1.51 1.58 1.58 0 011-1.42 11.88 11.88 0 012-.46v-.27a.53.53 0 00-.56-.6c-.62 0-.73.36-.77.58H123c0-1.09 1-1.54 2.09-1.54.85 0 2.13.23 2.13 1.42v2.9c0 .43 0 .59.15.77zm-1.08-2.06c-.5.16-.63.4-.63.62a.53.53 0 00.56.5 1.1 1.1 0 001-1.22v-.24zm6.31 2.06v-3.08c0-.46-.14-.85-.73-.85s-.76.47-.76 1.14V66h-1.47v-5h1.48v.44a1.82 1.82 0 011.4-.56 1.36 1.36 0 011.54 1.52V66zm5.6 0v-.47a1.78 1.78 0 01-1.32.6c-1.17 0-2.14-.9-2.14-2.57 0-1.47.72-2.65 2.06-2.65a2 2 0 011.31.5v-2.13h1.42V66zm-1-1c.94 0 1-1.25 1-1.49 0-.62-.11-1.56-.91-1.56s-1 .85-1 1.55c-.07.5.02 1.5.87 1.5zm9.23-3.73a2.37 2.37 0 00-1.75-.84c-.68 0-1 .4-1 .72s.29.53.86.61l.74.11c1.74.24 2.46.78 2.46 1.93 0 1.41-1.12 2.33-3 2.33a3.6 3.6 0 01-3.06-1.36l1.27-.8a2.58 2.58 0 001.94.84c.49 0 1.23-.22 1.23-.78s-.57-.6-1.16-.68l-.77-.11c-1.18-.16-2.14-.71-2.14-1.88s1-2.24 2.71-2.24a4.05 4.05 0 012.95 1.27zm3.6.73v2.37c0 .33.16.41.38.41h.52v1.13a4.43 4.43 0 01-.93.08c-.79 0-1.41-.25-1.41-1.41V62h-.72v-.89h.72v-1.52h1.44v1.56h1V62zm4.4 4v-.45a2.39 2.39 0 01-1.52.58 1.5 1.5 0 01-1.62-1.51 1.59 1.59 0 011-1.42 12.1 12.1 0 012-.46v-.27a.53.53 0 00-.56-.6c-.62 0-.73.36-.77.58h-1.46c0-1.09 1-1.54 2.09-1.54.85 0 2.13.23 2.13 1.42v2.9a1.23 1.23 0 00.14.77zm-1.08-2.06c-.5.16-.63.4-.63.62a.53.53 0 00.56.5 1.1 1.1 0 001-1.22v-.24zm6.3 2.06v-3.08c0-.46-.13-.85-.72-.85s-.77.47-.77 1.14V66h-1.46v-5h1.48v.44a1.8 1.8 0 011.4-.56 1.36 1.36 0 011.53 1.52V66zm4.13-4v4h-1.46v-4h-.77v-.89h.77v-.71c0-.86.64-1.26 1.49-1.26a6.23 6.23 0 01.88.09v1.1H163c-.61 0-.65.12-.65.48v.3h1V62zm3.72 4.13a2.63 2.63 0 112.67-2.63 2.47 2.47 0 01-2.67 2.63zM166 62c-.55 0-1.13.42-1.13 1.45 0 .83.36 1.48 1.21 1.48s1.17-.67 1.17-1.41c.01-1.03-.44-1.52-1.25-1.52zm4.82-1v.52a1.69 1.69 0 01.58-.37 2.32 2.32 0 01.85-.2v1.29l-.48.07c-.77.13-.91.33-.91.86V66h-1.46v-5zm5.05 5v-.47a1.78 1.78 0 01-1.32.6c-1.16 0-2.14-.9-2.14-2.57 0-1.47.72-2.65 2.07-2.65a2 2 0 011.31.5v-2.13h1.41V66zm-1-1c.95 0 1-1.25 1-1.49 0-.62-.12-1.56-.91-1.56s-1 .85-1 1.55c-.07.5.04 1.5.87 1.5z"/><path d="M183.13 63.73v-1.36h5.22v1.36zm13.26-.4a2.64 2.64 0 01-2.88 2.8 2.55 2.55 0 01-2.84-2.69v-4.16h1.69v4.35c0 .9.46 1.11 1.21 1.11s1.14-.42 1.14-1.19v-4.27h1.68zm.78 2.67v-1.61h1.5V66zm6.91-4.73a2.37 2.37 0 00-1.75-.84c-.69 0-1 .4-1 .72s.28.53.85.61l.74.11c1.75.24 2.47.78 2.47 1.93 0 1.41-1.13 2.33-3 2.33a3.58 3.58 0 01-3.05-1.36l1.27-.8a2.57 2.57 0 001.94.84c.49 0 1.23-.22 1.23-.78s-.57-.6-1.17-.68l-.77-.11c-1.17-.16-2.13-.71-2.13-1.88s1-2.24 2.7-2.24a4 4 0 012.95 1.27zm1.99 4.73v-1.61h1.5V66zm7.93 0l-2.37-4v4H210v-6.7h1.64l2.38 4.08v-4.1h1.61V66zm3.94-2.2v.06a1.12 1.12 0 001.13 1.14 1.33 1.33 0 001.25-.88l1.1.56a2.79 2.79 0 01-2.42 1.48 2.36 2.36 0 01-2.5-2.56 2.46 2.46 0 012.5-2.73c1.86 0 2.49 1.49 2.49 2.87v.06zm2-.91a1 1 0 00-1-1 1.07 1.07 0 00-1 1zm7.48 3.11h-1.58l-.73-3.3-.74 3.3h-1.61l-1.36-5h1.54l.69 3.47.75-3.47h1.56l.68 3.5.77-3.5h1.51zm4.96-3.56a2.06 2.06 0 00-1.26-.5c-.31 0-.68.11-.68.38s.23.32.8.43l.36.07c1.07.2 1.78.63 1.78 1.55 0 1.24-1.31 1.73-2.34 1.73a3.28 3.28 0 01-2.41-1l.93-.83A2.11 2.11 0 00231 65c.48 0 .88-.17.88-.48s-.26-.35-.79-.44l-.44-.08c-1.18-.19-1.66-.71-1.66-1.47s.7-1.66 2.09-1.66a3.62 3.62 0 012.2.74zm8.08 3.56a1.33 1.33 0 01-1.13-.45 3.35 3.35 0 01-1.79.51 2.1 2.1 0 01-2.29-2.06 2.3 2.3 0 011.64-2.11 2.29 2.29 0 01-.44-1.15 1.54 1.54 0 011.72-1.47 1.48 1.48 0 011.63 1.45 1.71 1.71 0 01-1.25 1.56c.18.28.36.54.54.8l.37.53a3.77 3.77 0 00.32-1L241 63a6 6 0 01-.72 1.59.82.82 0 00.76.31h.24V66zm-3-3.14l-.23.15a1.14 1.14 0 00-.55.93 1 1 0 001 1 1.84 1.84 0 00.93-.31zm.66-2.58a.42.42 0 00-.47.39c0 .22.11.37.32.72.28-.15.62-.39.62-.71s-.2-.42-.45-.42zM250.45 66h-1.73l-1.21-4.29L246.3 66h-1.73l-1.7-6.7h1.68l1 4.61 1.22-4.61h1.49l1.25 4.61 1-4.61h1.67zm4.27.13a2.63 2.63 0 112.67-2.63 2.47 2.47 0 01-2.67 2.63zm-.06-4.1c-.55 0-1.13.42-1.13 1.45 0 .83.36 1.48 1.21 1.48s1.17-.67 1.17-1.41c0-1.06-.45-1.55-1.25-1.55zm4.81-1.03v.52a1.62 1.62 0 01.57-.37 2.36 2.36 0 01.86-.2v1.29l-.49.07c-.76.13-.91.33-.91.86V66h-1.45v-5zm1.85 5v-6.7h1.45V66zm5.6 0v-.47a1.78 1.78 0 01-1.32.6c-1.16 0-2.14-.9-2.14-2.57 0-1.47.72-2.65 2.07-2.65a2 2 0 011.31.5v-2.13h1.41V66zm-1-1c.95 0 1-1.25 1-1.49 0-.62-.12-1.56-.92-1.56s-1 .85-1 1.55c-.06.5 0 1.5.88 1.5zm8.16-5.72c1 0 2.57.25 2.57 2.17a1.79 1.79 0 01-1.38 1.85l1.55 2.7H275l-1.34-2.39h-1.05V66h-1.68v-6.7zm-1.49 3.06H274a.88.88 0 001-.93c0-.87-.71-.89-1-.89h-1.39zm5.95 1.46v.06a1.12 1.12 0 001.13 1.14 1.34 1.34 0 001.26-.88l1.1.56a2.81 2.81 0 01-2.47 1.44 2.36 2.36 0 01-2.51-2.56 2.47 2.47 0 012.55-2.73c1.86 0 2.48 1.49 2.48 2.87v.06zm2-.91a1 1 0 00-1-1 1.08 1.08 0 00-1 1zM284 61v.49a1.6 1.6 0 011.38-.6c1.43 0 2.16 1.2 2.16 2.58 0 1.6-.84 2.58-2.16 2.58a2 2 0 01-1.21-.41v2h-1.48V61zm1.11 4c.75 0 1-.84 1-1.6 0-.34-.1-1.48-1-1.48-.54 0-1.05.48-1.05 1.63.01.84.35 1.45 1.02 1.45zm5.43 1.13a2.63 2.63 0 112.67-2.63 2.47 2.47 0 01-2.67 2.63zm-.06-4.1c-.55 0-1.13.42-1.13 1.45 0 .83.35 1.48 1.21 1.48s1.17-.67 1.17-1.41c0-1.06-.45-1.55-1.25-1.55zm4.8-1.03v.52a1.8 1.8 0 01.58-.37 2.36 2.36 0 01.86-.2v1.29l-.49.07c-.77.13-.91.33-.91.86V66h-1.45v-5zm3.72 1v2.37c0 .33.15.41.38.41h.51v1.13a4.39 4.39 0 01-.89.09c-.8 0-1.42-.25-1.42-1.41V62h-.72v-.89h.72v-1.52H299v1.56h1V62zm3.07 2.38v1.3a1.73 1.73 0 01-1.51 1.94V67c.46-.18.53-.53.57-1h-.58v-1.6zm2.12-4.84h4.55v1.16a8.81 8.81 0 00-1.74 3.19 9.1 9.1 0 00-.44 2.09h-1.77a11.25 11.25 0 012.52-5.19h-3.07zM315.32 61l-1.75 5.36a2.24 2.24 0 01-.48.93 1.23 1.23 0 01-1 .38H311v-1.15h.63c.4 0 .49-.19.49-.36a1.69 1.69 0 00-.1-.48L310.58 61h1.55l.82 3.55.81-3.55zm1.41 2.8v.06a1.12 1.12 0 001.13 1.14 1.34 1.34 0 001.26-.88l1.1.56a2.81 2.81 0 01-2.47 1.44 2.36 2.36 0 01-2.51-2.56 2.47 2.47 0 012.55-2.73c1.86 0 2.48 1.49 2.48 2.87v.06zm2-.91a.94.94 0 00-1-1 1.07 1.07 0 00-1 1zm5.03 3.11v-.45a2.39 2.39 0 01-1.52.58 1.51 1.51 0 01-1.63-1.51 1.58 1.58 0 011.05-1.42 11.88 11.88 0 011.95-.46v-.27a.53.53 0 00-.56-.6c-.61 0-.73.36-.77.58h-1.46c0-1.09 1-1.54 2.09-1.54.85 0 2.14.23 2.14 1.42v2.9c0 .43 0 .59.14.77zm-1.09-2.06c-.5.16-.62.4-.62.62a.53.53 0 00.56.5 1.09 1.09 0 001-1.22v-.24zm4.75-2.94v.52a1.8 1.8 0 01.58-.37 2.36 2.36 0 01.86-.2v1.29l-.49.07c-.77.13-.91.33-.91.86V66H326v-5zm5.09 1.44a2.08 2.08 0 00-1.26-.5c-.32 0-.69.11-.69.38s.23.32.81.43l.35.07c1.07.2 1.79.63 1.79 1.55 0 1.24-1.31 1.73-2.35 1.73a3.27 3.27 0 01-2.4-1l.92-.83a2.11 2.11 0 001.44.68c.49 0 .89-.17.89-.48s-.26-.35-.79-.44l-.45-.08c-1.17-.19-1.66-.71-1.66-1.47s.7-1.66 2.1-1.66a3.66 3.66 0 012.2.74zm3.09 1.94v1.3a1.73 1.73 0 01-1.51 1.94V67c.46-.18.53-.53.57-1h-.58v-1.6zm2.1-2.53v-.23a2 2 0 012.3-2.19 1.92 1.92 0 012.18 2c0 1.12-.61 2-2.48 3.41h2.5V66h-4.41v-1.14c.49-.39.82-.65 1.49-1.22a2.8 2.8 0 001.31-2.22c0-.25 0-.88-.66-.88-.25 0-.7.11-.7.79v.6zm7.48-2.41c2.06 0 2.28 2.44 2.28 3.35 0 1.46-.48 3.33-2.33 3.33-1.52 0-2.23-1.33-2.23-3.41 0-1.81.71-3.27 2.28-3.27zm0 5.5c.72 0 .86-1.1.86-2.13s-.17-2.18-.88-2.18-.85.93-.86 2.4c0 .74.11 1.91.88 1.91zm3.01-4.44a2.57 2.57 0 001.06-.24 1.3 1.3 0 00.67-.72h1.16V66h-1.53v-4.7a2.72 2.72 0 01-1.36.21zm7.3.84v-.13a.59.59 0 00-.59-.64c-.82 0-.91 1.22-.94 2a1.53 1.53 0 011.4-.75 1.79 1.79 0 011.77 2 2.13 2.13 0 01-2.3 2.26c-1.13 0-2.31-.72-2.31-3.17 0-1.74.41-3.49 2.51-3.49a1.88 1.88 0 012 1.75zm-.6 3.62c.79 0 .79-.85.79-1s0-1-.77-1c-.43 0-.76.34-.76 1 0 .32.09 1.04.74 1.04zm3.35-1.23v-1.36h5.22v1.36zm6.42-1.88v-.23a2 2 0 012.25-2.19 1.93 1.93 0 012.19 2c0 1.12-.61 2-2.49 3.41h2.51V66h-4.42v-1.14c.5-.39.83-.65 1.49-1.22a2.8 2.8 0 001.31-2.22c0-.25 0-.88-.65-.88-.26 0-.7.11-.7.79v.6zm7.48-2.41c2.06 0 2.27 2.44 2.27 3.35 0 1.46-.48 3.33-2.33 3.33-1.52 0-2.23-1.33-2.23-3.41 0-1.81.71-3.27 2.29-3.27zm0 5.5c.72 0 .85-1.1.85-2.13s-.17-2.18-.87-2.18-.86.93-.87 2.4c0 .74.12 1.91.89 1.91zm2.86-3.09v-.23a2 2 0 012.25-2.19 1.93 1.93 0 012.19 2c0 1.12-.61 2-2.49 3.41h2.51V66H375v-1.14c.5-.39.83-.65 1.49-1.22a2.8 2.8 0 001.31-2.22c0-.25 0-.88-.65-.88-.26 0-.7.11-.7.79v.6zm5.12 0v-.23a2 2 0 012.26-2.19 1.92 1.92 0 012.18 2c0 1.12-.61 2-2.49 3.41h2.51V66h-4.42v-1.14c.5-.39.83-.65 1.49-1.22a2.8 2.8 0 001.35-2.22c0-.25 0-.88-.65-.88-.26 0-.7.11-.7.79v.6z" fill="#ffc627"/><path d="M36.07 26.3a11.59 11.59 0 004.77-1.06 6 6 0 003-3.24H49v28.9h-6.84V29.8c-1.58.68-2 .85-6.09.94zm23.24 3.32h4.58v3.58h-4.58zm0 5.54h4.58V50.9h-4.58zm12.85 1.45a4.45 4.45 0 011.57-1.24 7.63 7.63 0 012.86-.57 6 6 0 012.8.63c1.65.87 2.07 2.29 2.07 4.73V50.9h-4.6v-8.85a6.27 6.27 0 00-.21-2.34 2.11 2.11 0 00-2.08-1.21c-2.44 0-2.44 2-2.44 3.91v8.49H67.5V35.22h4.66zm19.77-5.96h4.61v4.9h3v2.83h-3.03v7.07c0 1 0 1.78 1.2 1.78l1.66-.06v3.61a15 15 0 01-2.44.24c-1.6 0-3.34-.09-4.33-1.53a6 6 0 01-.67-3.56v-7.58h-2.28v-2.83h2.28zm14.72-1.03v7.23a6 6 0 014.51-2.08 5.25 5.25 0 013.34 1.11c1.39 1.18 1.63 2.65 1.63 4.7V50.9h-4.61v-8.22a7.66 7.66 0 00-.21-2.4 2.17 2.17 0 00-2.16-1.57 2.4 2.4 0 00-1.9.9 6.13 6.13 0 00-.6 3.47v7.82H102V29.62zm27.02 17.28a12.57 12.57 0 01-1.89 2.35 8.66 8.66 0 01-5.93 2.22c-4.67 0-7.95-3-7.95-8.12 0-3.8 1.87-8.67 8.07-8.67a7.63 7.63 0 015.66 2.26c2 2.19 2.16 5.26 2.22 7h-11.22c0 2 1.08 3.91 3.58 3.91a4.14 4.14 0 004-2.77zm-4.6-5.81a3.75 3.75 0 00-.87-2.23 3.3 3.3 0 00-2.26-.87 3.18 3.18 0 00-2.35 1 4.16 4.16 0 00-.93 2.08zm32.38-11.44v11.86c0 2.05-.06 4.09-1.24 6-2.28 3.67-7 3.85-7.91 3.85a11.35 11.35 0 01-4.94-1.14c-4.09-2.11-4.09-5.84-4.06-8.73V29.65h5.36V42.9a5.71 5.71 0 00.39 2.64c.66 1.12 2.11 1.45 3.43 1.45 3.61 0 3.61-2.47 3.64-4.12V29.65zm1.34 16.7h4.31v4.55h-4.31zm9.9-1.83a6.75 6.75 0 002.05 1.66 8.75 8.75 0 004.09 1c2.11 0 3.91-1 3.91-2.47 0-1.68-2.14-2-3.7-2.17-1.17-.15-2.35-.3-3.49-.54-1.3-.27-5.72-1.2-5.72-5.78 0-5.47 4.88-7.1 8.55-7.1 4.9 0 7.55 2.38 9.39 4L183.86 36a10 10 0 00-2.11-1.71 7.66 7.66 0 00-3.46-.93c-2.11 0-3.16 1.2-3.16 2.22 0 1.63 1.8 1.87 2.71 2a41.87 41.87 0 016.5 1.26A5.28 5.28 0 01188 44a7 7 0 01-1.69 4.51c-1.92 2.23-5 2.86-8 2.86-6 0-8.37-2.77-9.69-4.3zm15.82 1.83h4.31v4.55h-4.31zm14.37-12.72a4.55 4.55 0 01.66-2.68 4.83 4.83 0 014-1.6 21.13 21.13 0 012.77.27v3.46h-1.11c-1.75 0-1.84.37-1.81 2.47h3.1v2.83h-3.07V50.9h-4.6V38.38h-2.47v-2.83h2.5zm25.7 9.37c0 4-2.29 8.33-8.43 8.33-4.42 0-8.46-2.53-8.46-8.33 0-4.82 3-8.64 9.06-8.31 6.41.38 7.83 5.47 7.83 8.31zm-11.44-3.1a5.69 5.69 0 00-.78 3.07c0 2.49 1.2 4.69 3.79 4.69s3.73-2 3.73-4.48a5.36 5.36 0 00-1.29-4 3.38 3.38 0 00-2.71-.87 3.11 3.11 0 00-2.74 1.61zm17.69-3.08a7.27 7.27 0 014.55-1.82v4.1l-1.54.24c-2.22.4-2.89.73-2.89 2.71v8.85h-4.63V35.16h4.51zm14.45-7.2h4.57v3.58h-4.57zm0 5.54h4.57V50.9h-4.57zm12.25 1.45a4.41 4.41 0 011.56-1.24 7.67 7.67 0 012.91-.57 6 6 0 012.8.63c1.65.87 2.08 2.29 2.08 4.73V50.9h-4.61v-8.85a6.27 6.27 0 00-.21-2.34 2.1 2.1 0 00-2.08-1.21c-2.43 0-2.43 2-2.43 3.91v8.49h-4.64V35.22h4.67zm16.37 0a4.41 4.41 0 011.56-1.24 7.67 7.67 0 012.86-.57 6 6 0 012.8.63c1.65.87 2.08 2.29 2.08 4.73V50.9h-4.61v-8.85a6.27 6.27 0 00-.21-2.34 2.1 2.1 0 00-2.08-1.21c-2.43 0-2.43 2-2.43 3.91v8.49h-4.64V35.22h4.67zM305.94 43c0 4-2.28 8.33-8.42 8.33-4.43 0-8.46-2.53-8.46-8.33 0-4.82 3-8.64 9.06-8.31 6.41.38 7.82 5.47 7.82 8.31zm-11.43-3.1a5.69 5.69 0 00-.78 3.07c0 2.49 1.2 4.69 3.79 4.69s3.73-2 3.73-4.48a5.36 5.36 0 00-1.29-4 3.38 3.38 0 00-2.71-.87 3.11 3.11 0 00-2.74 1.61zm11.19-4.71h4.88a100.68 100.68 0 012.77 11.44c.63-3.49.72-3.89 1.65-7.59l1-3.85h4.76l-5.13 15.71h-4.84zm16.43 4.45a4.37 4.37 0 011.66-3.49 8.09 8.09 0 015.15-1.38c1.92 0 6.59.45 6.59 4.51v9.15c0 1.69.09 1.93.45 2.47h-4.55v-1.44a7.38 7.38 0 01-4.81 1.86 4.77 4.77 0 01-5.15-4.78 5.09 5.09 0 013.31-4.54 40.87 40.87 0 016.2-1.44v-.84c-.06-.73-.12-1.93-1.77-1.93-2 0-2.32 1.26-2.44 1.83zm5.87 4.73c-.78.3-2 .75-2 2a1.68 1.68 0 001.74 1.59 3.09 3.09 0 001.6-.51c1.53-1 1.59-2.41 1.62-4zm11.11-13.72h4.6v4.9h3v2.83h-3.07v7.07c0 1 0 1.78 1.2 1.78l1.66-.06v3.61a14.87 14.87 0 01-2.44.24c-1.59 0-3.34-.09-4.33-1.53a6.13 6.13 0 01-.66-3.56v-7.58h-2.29v-2.83h2.29zm10.14-1.03h4.57v3.58h-4.57zm0 5.54h4.57V50.9h-4.57zM372.57 43c0 4-2.29 8.33-8.43 8.33-4.42 0-8.45-2.53-8.45-8.33 0-4.82 3-8.64 9.06-8.31 6.41.38 7.82 5.47 7.82 8.31zm-11.44-3.1a5.69 5.69 0 00-.78 3.07c0 2.49 1.21 4.69 3.79 4.69s3.74-2 3.74-4.48a5.36 5.36 0 00-1.3-4 3.37 3.37 0 00-2.71-.87 3.13 3.13 0 00-2.74 1.61zm17.37-3.29a4.41 4.41 0 011.56-1.24 7.67 7.67 0 012.86-.57 6 6 0 012.8.63c1.66.87 2.08 2.29 2.08 4.73V50.9h-4.61v-8.85a6.27 6.27 0 00-.21-2.34 2.09 2.09 0 00-2.07-1.21c-2.44 0-2.44 2-2.44 3.91v8.49h-4.64V35.22h4.67z"/><path d="M34.53 50.9h-3.1l.65-4.54h-2.46L29 50.9h-3.07l.59-4.54h-2.33v-3H27l.29-2.36h-2.48v-3h2.9l.62-4.32h3.1L30.79 38h2.48l.59-4.32H37L36.36 38h2.26v3h-2.68l-.32 2.34h2.43v3h-2.88zm-2-7.55l.31-2.35h-2.45L30 43.35z"/></svg>